<mxfile host="app.diagrams.net" agent="Mozilla/5.0 (Macintosh; Intel Mac OS X 10_15_7) AppleWebKit/537.36 (KHTML, like Gecko) Chrome/131.0.0.0 Safari/537.36" version="25.0.3">
  <diagram name="Page-1" id="e7e014a7-5840-1c2e-5031-d8a46d1fe8dd">
    <mxGraphModel dx="1490" dy="908" grid="1" gridSize="10" guides="1" tooltips="1" connect="1" arrows="1" fold="1" page="1" pageScale="1" pageWidth="100" pageHeight="200" background="none" math="0" shadow="0">
      <root>
        <mxCell id="0" />
        <mxCell id="1" parent="0" />
        <mxCell id="eOAKwcTZS99YKjh42Vy_-94" value="" style="group" parent="1" vertex="1" connectable="0">
          <mxGeometry x="120" y="70" width="1170" height="190" as="geometry" />
        </mxCell>
        <mxCell id="eOAKwcTZS99YKjh42Vy_-46" style="edgeStyle=orthogonalEdgeStyle;rounded=0;orthogonalLoop=1;jettySize=auto;html=1;entryX=0;entryY=0.5;entryDx=0;entryDy=0;" parent="eOAKwcTZS99YKjh42Vy_-94" source="eOAKwcTZS99YKjh42Vy_-41" target="eOAKwcTZS99YKjh42Vy_-43" edge="1">
          <mxGeometry relative="1" as="geometry" />
        </mxCell>
        <mxCell id="eOAKwcTZS99YKjh42Vy_-41" value="" style="ellipse;shape=startState;fillColor=#FFFFFF;strokeColor=default;" parent="eOAKwcTZS99YKjh42Vy_-94" vertex="1">
          <mxGeometry x="141.2" y="48.097457627118644" width="41.927710843373504" height="44.389830508474574" as="geometry" />
        </mxCell>
        <mxCell id="eOAKwcTZS99YKjh42Vy_-83" style="edgeStyle=orthogonalEdgeStyle;rounded=0;orthogonalLoop=1;jettySize=auto;html=1;entryX=0;entryY=0.5;entryDx=0;entryDy=0;" parent="eOAKwcTZS99YKjh42Vy_-94" source="eOAKwcTZS99YKjh42Vy_-42" target="eOAKwcTZS99YKjh42Vy_-45" edge="1">
          <mxGeometry relative="1" as="geometry" />
        </mxCell>
        <mxCell id="eOAKwcTZS99YKjh42Vy_-42" value="Diagram preview&#xa;opened in IDE" style="fontSize=15;" parent="eOAKwcTZS99YKjh42Vy_-94" vertex="1">
          <mxGeometry x="503.12481927710854" y="37" width="195.66265060240968" height="66.58474576271186" as="geometry" />
        </mxCell>
        <mxCell id="eOAKwcTZS99YKjh42Vy_-48" style="edgeStyle=orthogonalEdgeStyle;rounded=0;orthogonalLoop=1;jettySize=auto;html=1;entryX=0;entryY=0.5;entryDx=0;entryDy=0;" parent="eOAKwcTZS99YKjh42Vy_-94" source="eOAKwcTZS99YKjh42Vy_-43" target="eOAKwcTZS99YKjh42Vy_-42" edge="1">
          <mxGeometry relative="1" as="geometry" />
        </mxCell>
        <mxCell id="eOAKwcTZS99YKjh42Vy_-43" value="&lt;span style=&quot;font-size: 15px;&quot;&gt;Open diagram&lt;/span&gt;&lt;div&gt;&lt;span style=&quot;font-size: 15px;&quot;&gt;in IDE&lt;/span&gt;&lt;/div&gt;" style="rounded=1;whiteSpace=wrap;html=1;" parent="eOAKwcTZS99YKjh42Vy_-94" vertex="1">
          <mxGeometry x="243.12084337349398" y="40.699152542372886" width="167.71084337349401" height="59.186440677966104" as="geometry" />
        </mxCell>
        <mxCell id="eOAKwcTZS99YKjh42Vy_-45" value="User wants toÂ &#xa;modify diagram?" style="rhombus;fillColor=#FFFFFF;strokeColor=#000000;fontSize=15;" parent="eOAKwcTZS99YKjh42Vy_-94" vertex="1">
          <mxGeometry x="791.2006024096388" y="37" width="237.5903614457832" height="66.58474576271186" as="geometry" />
        </mxCell>
        <mxCell id="eOAKwcTZS99YKjh42Vy_-44" value="" style="ellipse;shape=endState;fillColor=#FFFFFF;strokeColor=#000000;" parent="1" vertex="1">
          <mxGeometry x="1016.2022891566266" y="438.0936319612591" width="41.927710843373504" height="44.389830508474574" as="geometry" />
        </mxCell>
        <mxCell id="eOAKwcTZS99YKjh42Vy_-88" style="edgeStyle=orthogonalEdgeStyle;rounded=0;orthogonalLoop=1;jettySize=auto;html=1;entryX=1;entryY=0.5;entryDx=0;entryDy=0;" parent="1" source="eOAKwcTZS99YKjh42Vy_-55" target="eOAKwcTZS99YKjh42Vy_-78" edge="1">
          <mxGeometry relative="1" as="geometry" />
        </mxCell>
        <mxCell id="eOAKwcTZS99YKjh42Vy_-55" value="New diagram" style="fontSize=15;" parent="1" vertex="1">
          <mxGeometry x="621.8048192771084" y="283.29808716707026" width="195.66265060240968" height="66.58474576271186" as="geometry" />
        </mxCell>
        <mxCell id="BfHZy3_pJj_lQgQOA6na-7" style="edgeStyle=orthogonalEdgeStyle;rounded=0;orthogonalLoop=1;jettySize=auto;html=1;exitX=0.5;exitY=1;exitDx=0;exitDy=0;entryX=0.5;entryY=0;entryDx=0;entryDy=0;" edge="1" parent="1" source="eOAKwcTZS99YKjh42Vy_-78" target="eOAKwcTZS99YKjh42Vy_-89">
          <mxGeometry relative="1" as="geometry" />
        </mxCell>
        <mxCell id="eOAKwcTZS99YKjh42Vy_-78" value="&lt;span style=&quot;font-size: 15px;&quot;&gt;User generates SVG&lt;/span&gt;&lt;div&gt;&lt;span style=&quot;font-size: 15px;&quot;&gt;with extension&lt;/span&gt;&lt;/div&gt;" style="rounded=1;whiteSpace=wrap;html=1;" parent="1" vertex="1">
          <mxGeometry x="303.7303614457831" y="287.0072397094431" width="167.71084337349401" height="59.186440677966104" as="geometry" />
        </mxCell>
        <mxCell id="BfHZy3_pJj_lQgQOA6na-8" style="edgeStyle=orthogonalEdgeStyle;rounded=0;orthogonalLoop=1;jettySize=auto;html=1;exitX=1;exitY=0.5;exitDx=0;exitDy=0;" edge="1" parent="1" source="eOAKwcTZS99YKjh42Vy_-89" target="eOAKwcTZS99YKjh42Vy_-91">
          <mxGeometry relative="1" as="geometry" />
        </mxCell>
        <mxCell id="eOAKwcTZS99YKjh42Vy_-89" value="SVG of diagram for&#xa;embedding" style="fontSize=15;" parent="1" vertex="1">
          <mxGeometry x="289.7548192771085" y="426.99808716707025" width="195.66265060240968" height="66.58474576271186" as="geometry" />
        </mxCell>
        <mxCell id="BfHZy3_pJj_lQgQOA6na-9" style="edgeStyle=orthogonalEdgeStyle;rounded=0;orthogonalLoop=1;jettySize=auto;html=1;exitX=1;exitY=0.5;exitDx=0;exitDy=0;" edge="1" parent="1" source="eOAKwcTZS99YKjh42Vy_-91">
          <mxGeometry relative="1" as="geometry">
            <mxPoint x="1011.2" y="460.66666666666674" as="targetPoint" />
          </mxGeometry>
        </mxCell>
        <mxCell id="eOAKwcTZS99YKjh42Vy_-91" value="&lt;span style=&quot;font-size: 15px;&quot;&gt;User embeds diagram&lt;/span&gt;&lt;div&gt;&lt;span style=&quot;font-size: 15px;&quot;&gt;in documentation&lt;/span&gt;&lt;/div&gt;" style="rounded=1;whiteSpace=wrap;html=1;" parent="1" vertex="1">
          <mxGeometry x="635.7803614457832" y="430.6972397094431" width="167.71084337349401" height="59.186440677966104" as="geometry" />
        </mxCell>
        <mxCell id="BfHZy3_pJj_lQgQOA6na-3" style="edgeStyle=orthogonalEdgeStyle;rounded=0;orthogonalLoop=1;jettySize=auto;html=1;entryX=1;entryY=0.5;entryDx=0;entryDy=0;" edge="1" parent="1" source="eOAKwcTZS99YKjh42Vy_-53" target="eOAKwcTZS99YKjh42Vy_-55">
          <mxGeometry relative="1" as="geometry">
            <mxPoint x="871.2" y="377" as="targetPoint" />
          </mxGeometry>
        </mxCell>
        <mxCell id="eOAKwcTZS99YKjh42Vy_-53" value="&lt;span style=&quot;font-size: 15px;&quot;&gt;User makes changes&lt;/span&gt;&lt;div&gt;&lt;span style=&quot;font-size: 15px;&quot;&gt;to the diagram&lt;/span&gt;&lt;/div&gt;" style="rounded=1;whiteSpace=wrap;html=1;" parent="1" vertex="1">
          <mxGeometry x="941.2" y="287" width="172.65" height="59.19" as="geometry" />
        </mxCell>
        <mxCell id="eOAKwcTZS99YKjh42Vy_-84" value="yes" style="edgeStyle=orthogonalEdgeStyle;rounded=0;orthogonalLoop=1;jettySize=auto;html=1;fontSize=15;" parent="1" source="eOAKwcTZS99YKjh42Vy_-45" target="eOAKwcTZS99YKjh42Vy_-53" edge="1">
          <mxGeometry relative="1" as="geometry" />
        </mxCell>
        <mxCell id="BfHZy3_pJj_lQgQOA6na-4" style="edgeStyle=orthogonalEdgeStyle;rounded=0;orthogonalLoop=1;jettySize=auto;html=1;exitX=0.5;exitY=1;exitDx=0;exitDy=0;entryX=0.5;entryY=0;entryDx=0;entryDy=0;" edge="1" parent="1" source="eOAKwcTZS99YKjh42Vy_-45" target="eOAKwcTZS99YKjh42Vy_-78">
          <mxGeometry relative="1" as="geometry" />
        </mxCell>
        <mxCell id="BfHZy3_pJj_lQgQOA6na-5" value="&lt;font style=&quot;font-size: 15px;&quot;&gt;no&lt;/font&gt;" style="edgeLabel;html=1;align=center;verticalAlign=middle;resizable=0;points=[];" vertex="1" connectable="0" parent="BfHZy3_pJj_lQgQOA6na-4">
          <mxGeometry x="-0.3348" y="1" relative="1" as="geometry">
            <mxPoint as="offset" />
          </mxGeometry>
        </mxCell>
      </root>
    </mxGraphModel>
  </diagram>
</mxfile>
